<svg xmlns="http://www.w3.org/2000/svg" width="272" height="92" fill="none" viewBox="0 0 272 92"><path fill="#2DABFF" d="M187.196 25.4632V24.0611H185.749H183.714H181.588H179.553H178.151V26.5938V54.5898C178.151 54.9968 178.151 55.4039 178.105 55.8109C178.105 56.1727 178.06 56.4893 178.015 56.8059C177.698 59.0673 176.884 60.9216 175.527 62.3689C173.809 64.2685 171.321 65.2183 168.155 65.2183H167.703C164.537 65.2183 162.05 64.2685 160.331 62.3689C158.974 60.9216 158.16 59.0673 157.843 56.7607C157.798 56.4441 157.753 56.0823 157.753 55.7657C157.753 55.3586 157.708 54.9516 157.708 54.5445V25.825V24.0159H156.306H154.542H152.642H150.109H148.662V25.4179V57.3939C148.662 60.7407 149.431 63.5901 151.059 65.9419C151.828 67.1178 156.486 73.1783 167.929 73.1783C179.281 73.1783 184.03 67.1178 184.799 65.9419C186.382 63.5901 187.196 60.7407 187.196 57.3939V25.4632C187.196 25.5084 187.196 25.4632 187.196 25.4632Z"/><path fill="#2DABFF" d="M0.632324 61.1024V69.3791V70.9621V72.4094H2.07961H3.84349H5.29077H8.32103H9.76831V71.0073V68.2936V8.86448V7.28151V5.83423H8.36625H5.42646H3.34598H2.07961H0.677552V7.28151V8.86448L0.632324 61.1024Z"/><path fill="#2DABFF" d="M199.451 24.1104H193.165H193.12H191.763V25.5124V26.9597V67.4837V71.1019V72.5492H193.21H194.386H196.195H199.451H200.899V71.1019V69.0214V26.2361V25.5576V24.1556H199.542C199.497 24.1104 199.497 24.1104 199.451 24.1104Z"/><path fill="#2DABFF" d="M52.4622 31.0282C50.9244 28.5859 48.7083 26.6863 45.8137 25.3295C42.9191 23.9274 39.5271 23.249 35.6827 23.249C30.572 23.249 26.1397 24.244 22.7024 26.6863C15.873 31.6161 16.4157 40.0285 16.4157 40.0285H25.4613C25.4613 40.0285 25.8231 36.546 27.5417 34.2846C27.587 34.2846 27.587 34.2393 27.587 34.1941C27.7226 34.0584 27.8131 33.9228 27.9488 33.7871C28.0845 33.6514 28.2201 33.5157 28.3558 33.4252C28.7177 33.1087 29.1247 32.8373 29.577 32.5659C31.2052 31.6161 33.2856 31.1186 35.9089 31.1186C39.2105 31.1186 41.6528 31.8875 43.281 33.4252C44.9092 34.963 45.7233 37.1339 45.7233 39.938V42.8778H34.6877C28.4915 42.8778 23.6522 44.2799 20.2149 47.084C16.7323 49.8881 15.0137 53.7777 15.0137 58.7075C15.0137 63.5016 16.5062 67.1199 19.4912 69.5169C22.4762 71.914 26.2754 73.0899 30.8886 73.0899C31.3861 73.0899 31.8384 73.0899 32.3359 73.0447C32.562 73.0447 32.7881 72.9995 33.0143 72.9995C33.4666 72.9542 33.9188 72.909 34.3259 72.8638C34.8686 72.7733 35.3661 72.6829 35.8636 72.5924C35.9089 72.5924 35.9541 72.5924 35.9541 72.5924C36.4064 72.502 36.8586 72.3663 37.2657 72.2758C37.7632 72.1401 38.1702 72.0044 38.6225 71.8688C38.6677 71.8688 38.7582 71.8235 38.8034 71.8235C39.1652 71.6879 39.5271 71.5522 39.8437 71.4165C40.2507 71.2356 40.6125 71.0547 40.9291 70.919C40.9743 70.919 41.0196 70.8738 41.0648 70.8738C41.3362 70.7381 41.6528 70.5572 41.9241 70.4215C42.1955 70.2406 42.4669 70.1049 42.693 69.924C43.281 69.5621 43.7785 69.1551 44.2307 68.8385C44.4117 68.6576 44.5926 68.5219 44.7735 68.3862C45.4067 67.7983 45.7233 67.346 45.7233 67.2103V72.4115H54.8592V39.3048C54.7688 36.2294 53.9999 33.4705 52.4622 31.0282ZM45.6328 56.0843C45.6328 58.798 44.3664 61.0594 41.8789 62.8232C39.3914 64.5871 36.4516 65.4917 33.1047 65.4917C30.4363 65.4917 28.2654 64.9037 26.592 63.6826C24.9185 62.5066 24.0592 60.6975 24.0592 58.3909C24.0592 55.7677 25.1899 53.7777 27.4061 52.2852C29.6222 50.8379 32.6072 50.1143 36.3611 50.1143H45.678L45.6328 56.0843Z"/><path fill="#2DABFF" d="M98.3245 68.2927V40.1158C98.3245 35.0051 96.7867 30.8894 93.7565 27.9044C90.7262 24.8741 86.6105 23.3816 81.4093 23.3816C80.8666 23.3816 80.3239 23.3816 79.8264 23.4268H79.7811C79.3741 23.472 78.9671 23.5173 78.56 23.5625C78.4243 23.5625 78.2886 23.6077 78.1982 23.6077C77.7459 23.6982 77.3389 23.7434 76.9318 23.8339C76.8866 23.8339 76.8414 23.8339 76.8414 23.8339C76.4343 23.9243 76.0725 24.0148 75.7559 24.1505C75.0322 24.3766 74.3538 24.648 73.7206 24.9193C73.4493 25.0098 73.2231 25.1455 72.9518 25.2812C71.2331 26.2309 70.1024 27.4069 69.5145 28.2662C69.1074 28.8089 68.9265 29.216 68.9265 29.4421V28.04V25.3716V23.9696H67.4792H64.1776H63.9515H61.2378H59.7905V28.04V68.9711V72.3631H62.6399H65.2631H68.9265V68.9711V40.1158C69.2431 37.4022 70.3286 35.2312 72.2281 33.603C74.0825 31.9748 76.3891 31.206 79.148 31.206C82.1782 31.206 84.6205 32.201 86.4748 34.1458C88.3292 36.0906 89.2337 38.6685 89.2337 41.8345V70.9159V72.3179H92.4449H94.3897H98.3245V68.2927Z"/><path fill="#2DABFF" d="M143.554 24.0631H142.107H139.936H137.765H135.82H134.373V25.4652V27.2291V29.2643C134.373 28.9025 134.101 28.3597 133.604 27.7718C133.604 27.7718 133.604 27.7266 133.559 27.7266C132.835 26.9125 131.659 25.9175 130.031 25.1034C129.669 24.9224 129.262 24.7415 128.855 24.6059C128.765 24.5606 128.674 24.5154 128.538 24.4702C128.041 24.2893 127.543 24.1083 127.001 23.9727C127.001 23.9727 126.955 23.9274 126.91 23.9274C126.413 23.7918 125.87 23.6561 125.282 23.5656H125.237C124.649 23.4752 124.061 23.3847 123.518 23.3395C122.975 23.2943 122.478 23.249 121.89 23.249C121.8 23.249 121.709 23.249 121.619 23.249C117.458 23.249 113.794 24.3797 110.719 26.6863C107.643 28.9929 105.518 32.0684 104.296 35.8675C103.347 38.7169 102.849 42.7874 102.849 48.0338C102.849 52.9636 103.256 56.8532 104.07 59.6121C105.337 63.8182 107.598 66.9842 110.945 69.1551C114.292 71.2808 118 72.3663 122.116 72.3663C123.292 72.3663 124.377 72.2758 125.372 72.0949C125.599 72.0497 125.825 72.0044 126.051 71.9592C126.322 71.9592 126.594 71.8688 126.82 71.7783C127.091 71.7331 127.408 71.6426 127.634 71.5522C127.724 71.5522 127.77 71.5069 127.815 71.4617C128.493 71.2808 129.172 71.0094 129.805 70.6928C130.076 70.5572 130.393 70.4215 130.619 70.2406C131.026 70.0597 131.343 69.8335 131.659 69.5621C131.84 69.4717 131.976 69.336 132.157 69.2003C132.247 69.1551 132.338 69.0646 132.428 68.9742C132.745 68.7028 133.016 68.4767 133.197 68.2053C133.921 67.4364 134.237 66.758 134.237 66.4867V69.6074C134.237 74.3111 133.061 77.6579 130.709 79.6479C128.358 81.6379 124.558 82.6329 119.312 82.6329H114.789H113.794V91.181H119.312H119.493C126.729 91.181 132.518 89.5075 136.86 86.2059C141.202 82.8591 143.373 77.3865 143.373 69.7883V26.6863L143.554 24.0631ZM134.237 53.7325C134.147 54.9084 134.011 55.9486 133.83 56.9889C133.333 59.3407 132.202 61.2403 130.438 62.7328C128.719 64.2253 126.413 64.9489 123.654 64.9489C120.985 64.9489 118.724 64.1801 116.87 62.7328C115.015 61.2403 113.749 59.3407 113.116 56.9889C112.483 55.4059 112.166 52.4209 112.166 48.0338C112.166 44.0537 112.528 41.1139 113.206 39.1692C113.975 36.8173 115.241 34.9178 117.005 33.4252C118.769 31.9327 120.985 31.2091 123.654 31.2091C126.322 31.2091 128.538 31.978 130.302 33.4252C132.066 34.9178 133.242 36.8173 133.74 39.1692C134.011 40.1642 134.192 41.2496 134.282 42.3351C134.373 43.4658 134.418 45.3201 134.418 47.9886C134.418 50.7022 134.328 52.6018 134.237 53.7325Z"/><path fill="#2DABFF" d="M272 24.1129L271.457 25.741L269.151 32.48L255.356 73.0944L253.909 77.3006C252.823 80.2856 251.783 82.6827 250.743 84.4918C250.517 84.8988 250.245 85.3059 250.019 85.6677C248.798 87.4316 247.306 88.7884 245.451 89.693C245.089 89.8739 244.682 90.0548 244.321 90.1905C241.969 91.0498 238.667 91.5021 234.416 91.5021H233.059V83.8134H234.19C236.722 83.8134 238.712 83.542 240.16 82.954C241.607 82.3661 242.783 81.3258 243.778 79.7881C244.773 78.2504 245.723 75.8985 246.582 72.823C246.672 72.6874 246.672 72.5064 246.582 72.2351L233.195 32.48H221.526V71.1044C221.526 71.1044 221.526 71.1044 221.526 71.1496V72.5517H212.39V71.1496C212.39 71.1496 212.39 71.1496 212.39 71.1044V32.48H204.701V24.1129H212.39V21.9872C212.39 17.8262 212.887 14.5698 213.882 12.3084C214.832 10.0018 216.506 8.37363 218.857 7.42385C220.305 6.83589 222.114 6.38361 224.33 6.15747C225.687 6.02179 227.134 5.97656 228.762 5.97656H233.149V13.9819H229.712C228.717 13.9819 227.813 14.0271 227.044 14.1628C225.325 14.4341 224.059 14.9769 223.245 15.791C222.114 16.9669 221.526 19.2735 221.526 22.6203V24.1581H239.979L240.25 25.0174L240.295 25.1531L242.602 32.5252L250.652 58.2597L251.105 59.707L251.331 60.4759L251.557 59.707L259.834 32.5252L262.095 25.1079L262.366 24.1581L272 24.1129Z"/><path fill="#2DABFF" d="M195.832 0.184082C194.159 0.184082 192.576 0.772042 191.309 1.72182C190.902 2.03842 190.495 2.40024 190.134 2.80729C189.048 4.11889 188.37 5.79231 188.37 7.60142C188.37 11.3553 191.174 14.476 194.792 14.9735C197.325 12.6217 196.556 8.86779 196.149 8.0537L197.913 7.28482C198.817 9.22961 199.405 15.3806 192.757 18.3656L193.978 20.7627H194.023C199.315 18.8631 203.295 14.1142 203.295 8.14415C203.25 4.07366 199.948 0.184082 195.832 0.184082Z"/></svg>